<mxfile host="Electron" modified="2023-05-18T20:52:03.979Z" agent="Mozilla/5.0 (Windows NT 10.0; Win64; x64) AppleWebKit/537.36 (KHTML, like Gecko) draw.io/21.2.8 Chrome/112.0.5615.165 Electron/24.2.0 Safari/537.36" etag="eTEmZk3CuV5irTszDbc3" version="21.2.8" type="device">
  <diagram id="p1WFtV5cTaJLbCV86L4F" name="Page-1">
    <mxGraphModel dx="1120" dy="532" grid="1" gridSize="10" guides="1" tooltips="1" connect="1" arrows="1" fold="1" page="1" pageScale="1" pageWidth="1169" pageHeight="827" math="0" shadow="0">
      <root>
        <mxCell id="0" />
        <mxCell id="1" parent="0" />
        <mxCell id="Lrtluq5l5MD6FJIpUNIz-151" value=":user.php" style="shape=umlLifeline;perimeter=lifelinePerimeter;whiteSpace=wrap;html=1;container=0;collapsible=0;recursiveResize=0;outlineConnect=0;" parent="1" vertex="1">
          <mxGeometry x="840" y="140" width="156.72" height="380" as="geometry" />
        </mxCell>
        <mxCell id="Lrtluq5l5MD6FJIpUNIz-152" value="Login, lands on home.php" style="html=1;verticalAlign=bottom;endArrow=block;rounded=0;elbow=vertical;" parent="1" edge="1">
          <mxGeometry x="-0.0556" y="3" width="80" relative="1" as="geometry">
            <mxPoint x="202.09" y="240" as="sourcePoint" />
            <mxPoint x="382.09" y="240" as="targetPoint" />
            <mxPoint as="offset" />
          </mxGeometry>
        </mxCell>
        <mxCell id="Lrtluq5l5MD6FJIpUNIz-153" value="" style="shape=umlLifeline;participant=umlActor;perimeter=lifelinePerimeter;whiteSpace=wrap;html=1;container=0;collapsible=0;recursiveResize=0;verticalAlign=top;spacingTop=36;outlineConnect=0;fontFamily=Helvetica;fontSize=12;fontColor=default;align=center;strokeColor=default;fillColor=default;size=50;" parent="1" vertex="1">
          <mxGeometry x="145" y="175.14" width="46.09" height="334.86" as="geometry" />
        </mxCell>
        <mxCell id="Lrtluq5l5MD6FJIpUNIz-154" value="Organization" style="text;html=1;align=center;verticalAlign=middle;resizable=1;points=[];autosize=1;strokeColor=none;fillColor=none;container=0;movable=1;rotatable=1;deletable=1;editable=1;connectable=1;locked=0;" parent="1" vertex="1">
          <mxGeometry x="130" y="140" width="90" height="30" as="geometry" />
        </mxCell>
        <mxCell id="Lrtluq5l5MD6FJIpUNIz-155" value=":home.php" style="shape=umlLifeline;perimeter=lifelinePerimeter;whiteSpace=wrap;html=1;container=0;collapsible=0;recursiveResize=0;outlineConnect=0;" parent="1" vertex="1">
          <mxGeometry x="289.9" y="140" width="199.75" height="380" as="geometry" />
        </mxCell>
        <mxCell id="Lrtluq5l5MD6FJIpUNIz-158" value="" style="html=1;points=[];perimeter=orthogonalPerimeter;container=0;" parent="1" vertex="1">
          <mxGeometry x="382.09" y="240" width="15.37" height="30" as="geometry" />
        </mxCell>
        <mxCell id="Lrtluq5l5MD6FJIpUNIz-160" value="&lt;font style=&quot;font-size: 11px;&quot;&gt;:navbar.php&lt;/font&gt;" style="shape=umlLifeline;perimeter=lifelinePerimeter;whiteSpace=wrap;html=1;container=0;collapsible=0;recursiveResize=0;outlineConnect=0;" parent="1" vertex="1">
          <mxGeometry x="570" y="140" width="190" height="380" as="geometry" />
        </mxCell>
        <mxCell id="Lrtluq5l5MD6FJIpUNIz-161" value="&lt;span style=&quot;font-size: 14px;&quot;&gt;&lt;b&gt;&lt;u&gt;Monitor plan expiry&lt;/u&gt;&lt;/b&gt;&lt;/span&gt;" style="text;html=1;align=center;verticalAlign=middle;resizable=0;points=[];autosize=1;strokeColor=none;fillColor=none;" parent="1" vertex="1">
          <mxGeometry x="475.56000000000006" y="90" width="150" height="30" as="geometry" />
        </mxCell>
        <mxCell id="Lrtluq5l5MD6FJIpUNIz-163" value="" style="html=1;points=[];perimeter=orthogonalPerimeter;container=0;" parent="1" vertex="1">
          <mxGeometry x="657.32" y="270" width="15.37" height="30" as="geometry" />
        </mxCell>
        <mxCell id="Lrtluq5l5MD6FJIpUNIz-172" value="" style="html=1;points=[];perimeter=orthogonalPerimeter;container=0;" parent="1" vertex="1">
          <mxGeometry x="910.68" y="300" width="15.37" height="30" as="geometry" />
        </mxCell>
        <mxCell id="-NEVhXVCDdOZwvtnlFNx-1" value="includes navbar.php" style="html=1;verticalAlign=bottom;endArrow=block;rounded=0;elbow=vertical;entryX=-0.086;entryY=0.04;entryDx=0;entryDy=0;entryPerimeter=0;" parent="1" target="Lrtluq5l5MD6FJIpUNIz-163" edge="1">
          <mxGeometry x="-0.0547" y="3" width="80" relative="1" as="geometry">
            <mxPoint x="400" y="271" as="sourcePoint" />
            <mxPoint x="635" y="290" as="targetPoint" />
            <mxPoint as="offset" />
          </mxGeometry>
        </mxCell>
        <mxCell id="-NEVhXVCDdOZwvtnlFNx-20" value="getUserInfo($userid)" style="html=1;verticalAlign=bottom;endArrow=block;rounded=0;elbow=vertical;" parent="1" edge="1">
          <mxGeometry x="-0.0283" width="80" relative="1" as="geometry">
            <mxPoint x="680" y="300" as="sourcePoint" />
            <mxPoint x="910" y="300" as="targetPoint" />
            <mxPoint as="offset" />
          </mxGeometry>
        </mxCell>
        <mxCell id="-NEVhXVCDdOZwvtnlFNx-23" value="" style="html=1;points=[];perimeter=orthogonalPerimeter;container=0;" parent="1" vertex="1">
          <mxGeometry x="657.3100000000001" y="330" width="15.37" height="30" as="geometry" />
        </mxCell>
        <mxCell id="-NEVhXVCDdOZwvtnlFNx-33" value="" style="html=1;points=[];perimeter=orthogonalPerimeter;container=0;" parent="1" vertex="1">
          <mxGeometry x="382.09000000000003" y="360" width="15.37" height="40" as="geometry" />
        </mxCell>
        <mxCell id="-NEVhXVCDdOZwvtnlFNx-35" value="echo $pricePlan, $daysRemaining" style="html=1;verticalAlign=bottom;endArrow=open;dashed=1;endSize=8;rounded=0;elbow=vertical;entryX=0.799;entryY=-0.02;entryDx=0;entryDy=0;entryPerimeter=0;" parent="1" edge="1">
          <mxGeometry x="0.0164" y="27" relative="1" as="geometry">
            <mxPoint x="645" y="360" as="sourcePoint" />
            <mxPoint x="405" y="360" as="targetPoint" />
            <mxPoint as="offset" />
            <Array as="points" />
          </mxGeometry>
        </mxCell>
        <mxCell id="-NEVhXVCDdOZwvtnlFNx-36" value="echo $pricePlan, $daysRemaining" style="html=1;verticalAlign=bottom;endArrow=open;dashed=1;endSize=8;rounded=0;elbow=vertical;" parent="1" edge="1">
          <mxGeometry x="0.0164" y="27" relative="1" as="geometry">
            <mxPoint x="385" y="399" as="sourcePoint" />
            <mxPoint x="170" y="400" as="targetPoint" />
            <mxPoint as="offset" />
            <Array as="points" />
          </mxGeometry>
        </mxCell>
        <mxCell id="wmaJupTZ_zYLlx8UUMlA-1" value="return $row =&amp;nbsp;mysqli_fetch_array($result)" style="html=1;verticalAlign=bottom;endArrow=open;dashed=1;endSize=8;rounded=0;elbow=vertical;" edge="1" parent="1" source="Lrtluq5l5MD6FJIpUNIz-151">
          <mxGeometry x="-0.0305" y="20" relative="1" as="geometry">
            <mxPoint x="868.5699999999999" y="330" as="sourcePoint" />
            <mxPoint x="680" y="330.22" as="targetPoint" />
            <mxPoint as="offset" />
            <Array as="points" />
          </mxGeometry>
        </mxCell>
      </root>
    </mxGraphModel>
  </diagram>
</mxfile>
